<svg width="163" height="32" viewBox="0 0 163 32" fill="none" xmlns="http://www.w3.org/2000/svg">
<path d="M10.9375 3.125H17.1875V9.375H10.9375C9.64583 9.375 8.54167 9.83333 7.625 10.75C6.70833 11.6667 6.25 12.7708 6.25 14.0625C6.25 15.3542 6.70833 16.4583 7.625 17.375C8.54167 18.2917 9.64583 18.75 10.9375 18.75H17.1875V25H10.9375C7.91667 25 5.33854 23.9323 3.20312 21.7969C1.06771 19.6615 0 17.0833 0 14.0625C0 11.0417 1.06771 8.46354 3.20312 6.32812C5.33854 4.19271 7.91667 3.125 10.9375 3.125ZM26.5781 3.125V18.75H32.8125V25H20.3281L20.3125 6.25L17.1875 3.125H26.5781ZM40.6406 3.125V25H34.3906L34.375 3.125H40.6406ZM51.5625 10.9375H59.375V17.1875H51.5625V10.9375ZM59.375 3.125V9.375H50.0156V18.75H59.375V25H43.75V6.25L40.625 3.125H59.375ZM82.8125 3.125V28.125L68.75 15.625V25H62.5V0L76.5625 13.2812V6.25L73.4375 3.125H82.8125ZM84.3125 3.125H100V9.375H95.3125V31.25H89.0625V9.375H84.375L84.3125 3.125ZM109.375 10.9375H117.188V17.1875H109.375V10.9375ZM117.188 3.125V9.375H107.828V18.75H117.188V25H101.562V6.25L98.4375 3.125H117.188ZM128.125 10.9375H135.938V17.1875H128.125V10.9375ZM135.938 3.125V9.375H126.578V18.75H135.938V25H120.312V6.25L117.188 3.125H135.938ZM158.406 24.3281L162.484 31.25L155.516 31.2344L150.984 24.3594L158.406 24.3281ZM150.984 24.3594L146.859 18.0781L146.828 12.5H149.984C151.026 12.5 151.547 11.9792 151.547 10.9375C151.547 9.89583 151.026 9.375 149.984 9.375H145.297V25H139.047V6.23438L135.938 3.125H149.984C155.193 3.125 157.797 5.72917 157.797 10.9375C157.797 15.1042 156.755 17.4531 154.672 17.9844L158.406 24.3281L150.984 24.3594Z" fill="#F59E0B"/>
</svg>
