<svg width="163" height="32" viewBox="0 0 163 32" fill="none" xmlns="http://www.w3.org/2000/svg">
<path d="M11.4375 3.625H17.6875V9.875H11.4375C10.1458 9.875 9.04167 10.3333 8.125 11.25C7.20833 12.1667 6.75 13.2708 6.75 14.5625C6.75 15.8542 7.20833 16.9583 8.125 17.875C9.04167 18.7917 10.1458 19.25 11.4375 19.25H17.6875V25.5H11.4375C8.41667 25.5 5.83854 24.4323 3.70312 22.2969C1.56771 20.1615 0.5 17.5833 0.5 14.5625C0.5 11.5417 1.56771 8.96354 3.70312 6.82812C5.83854 4.69271 8.41667 3.625 11.4375 3.625ZM27.0781 3.625V19.25H33.3125V25.5H20.8281L20.8125 6.75L17.6875 3.625H27.0781ZM41.1406 3.625V25.5H34.8906L34.875 3.625H41.1406ZM52.0625 11.4375H59.875V17.6875H52.0625V11.4375ZM59.875 3.625V9.875H50.5156V19.25H59.875V25.5H44.25V6.75L41.125 3.625H59.875ZM83.3125 3.625V28.625L69.25 16.125V25.5H63V0.5L77.0625 13.7812V6.75L73.9375 3.625H83.3125ZM84.8125 3.625H100.5V9.875H95.8125V31.75H89.5625V9.875H84.875L84.8125 3.625ZM109.875 11.4375H117.688V17.6875H109.875V11.4375ZM117.688 3.625V9.875H108.328V19.25H117.688V25.5H102.062V6.75L98.9375 3.625H117.688ZM128.625 11.4375H136.438V17.6875H128.625V11.4375ZM136.438 3.625V9.875H127.078V19.25H136.438V25.5H120.812V6.75L117.688 3.625H136.438ZM158.906 24.8281L162.984 31.75L156.016 31.7344L151.484 24.8594L158.906 24.8281ZM151.484 24.8594L147.359 18.5781L147.328 13H150.484C151.526 13 152.047 12.4792 152.047 11.4375C152.047 10.3958 151.526 9.875 150.484 9.875H145.797V25.5H139.547V6.73438L136.438 3.625H150.484C155.693 3.625 158.297 6.22917 158.297 11.4375C158.297 15.6042 157.255 17.9531 155.172 18.4844L158.906 24.8281L151.484 24.8594Z" fill="#F59E0B"/>
</svg>
